<?xml version="1.0" standalone="no"?><!DOCTYPE svg PUBLIC "-//W3C//DTD SVG 1.1//EN" "http://www.w3.org/Graphics/SVG/1.1/DTD/svg11.dtd"><svg t="1742977564798" class="icon" viewBox="0 0 1024 1024" version="1.1" xmlns="http://www.w3.org/2000/svg" p-id="40803" xmlns:xlink="http://www.w3.org/1999/xlink" width="200" height="200"><path d="M830.819997 1023.99899H187.600003a65.202999 65.202999 0 0 1-60.376999-89.604999 116.667999 116.667999 0 0 1 42.251999-54.791c-28.673-25.253-89.654999-95.449999-43.081999-206.020998a282.543997 282.543997 0 0 1-57.028-44.011999c-42.612-42.937-61.689999-93.305999-55.173999-145.687999l0.072-0.447c0.404-2.446 43.29-242.925998 284.506997-252.038997a731.345993 731.345993 0 0 1 89.379999-127.159999C463.78 19.323 540.874-14.718 611.134999 5.824a10.808 10.808 0 0 1 6.753 5.772c0.729 1.55 71.089999 156.798998-106.898999 298.185997a90.239999 90.239999 0 0 0-33.586 63.219999 85.008999 85.008999 0 0 0 21.696 64.79 75.166999 75.166999 0 0 0 54.813 24.834999c3.297 0.217 292.117997 23.969 336.591996 304.030998 23.818 2.237 88.262999 11.544 118.060999 47.965999a10.83 10.83 0 0 1 2.432 6.27c0.094 1.804 7.698 181.647998-178.941998 203.033998a10.289 10.289 0 0 1-1.234 0.072zM35.642005 486.818995c-5.628 45.902 10.736 88.651999 48.650999 127.057999a255.681998 255.681998 0 0 0 60.802 45.275 10.83 10.83 0 0 1 5.036 14.285999c-60.433999 129.510999 40.109 195.723998 44.415999 198.479998a10.823 10.823 0 0 1-1.197 18.904 92.122999 92.122999 0 0 0-46.032999 51.603 43.276 43.276 0 0 0 4.38 40.909999 42.742 42.742 0 0 0 35.901999 19.018h642.592994C983.844995 984.38799 989.696995 850.099992 989.472995 825.647992c-31.696-34.28-108.081999-37.995-108.875999-38.024a10.83 10.83 0 0 1-10.244999-9.329c-37.447-271.071997-314.809997-293.864997-317.609997-294.059997a95.816999 95.816999 0 0 1-69.655-31.889999 106.422999 106.422999 0 0 1-27.258999-81.098 111.978999 111.978999 0 0 1 41.696999-78.420999C647.144999 173.985998 609.921999 50.49 600.166999 25.267c-149.092999-37.085-283.849997 219.123998-285.213997 221.749998a10.837 10.837 0 0 1-9.38 5.844c-226.265998 4.647-268.559997 226.279998-269.938997 233.949997z" fill="#d81e06" p-id="40804"></path><path d="M512.013 361.527996a10.823 10.823 0 0 1-3.305-21.132999c1.775-0.57 175.731998-58.456999 223.999998-244.693998-14.134-4.87-44.978-12.164-74.249999 3.06a10.823 10.823 0 1 1-9.986-19.207c49.424-25.686 99.712999-1.133 101.826999-0.08a10.823 10.823 0 0 1 5.7 12.122C708.263998 297.239997 517.222 360.401996 515.303 361.008996a10.714 10.714 0 0 1-3.298 0.519z m-271.879997 347.472997a197.592998 197.592998 0 0 1-106.040999-31.292 10.823 10.823 0 0 1 12.446-17.712999 172.296998 172.296998 0 0 0 161.632998 12.698999 10.823 10.823 0 0 1 8.76 19.805 188.429998 188.429998 0 0 1-76.798999 16.501z" fill="#d81e06" p-id="40805"></path><path d="M477.33 267.406997c109.560999-87.028999 106.003999-175.110998 97.583999-213.249998q-2.41-0.13-4.849-0.13c-69.509999 0-140.282999 77.294999-185.831998 142.317999a663.501994 663.501994 0 0 1 45.419 140.983999 144.149999 144.149999 0 0 1 47.677999-69.915z m401.859996 552.649995l-36.060999-1.574c-149.742999 86.436999-446.730996 75.931999-565.650995 67.908999l0.44 0.289-70.664999 33.47a59.999999 59.999999 0 0 0-29.777 34.308 11.155 11.155 0 0 0 1.104 10.664 10.462 10.462 0 0 0 9.02 4.762h640.643994c106.242999-13.297 125.159999-93.305999 128.233999-129.496999-19.769-12.23-55.209999-19.264-77.288-20.332z" fill="#d81e06" p-id="40806"></path><path d="M168.486003 435.431996a18.94 18.94 0 1 1 18.94-18.932 18.961 18.961 0 0 1-18.94 18.94z m0-21.645a2.706 2.706 0 1 0 2.706 2.713 2.706 2.706 0 0 0-2.706-2.706z" fill="#d81e06" p-id="40807"></path></svg>